<?xml version="1.0" encoding="utf-8"?>
<svg xmlns="http://www.w3.org/2000/svg" xmlns:xlink="http://www.w3.org/1999/xlink" width="185" height="83" viewBox="0 0 185 83">
  <defs>
    <clipPath id="clip-_2gb">
      <rect width="185" height="83"/>
    </clipPath>
  </defs>
  <g id="_2gb" data-name="2gb" clip-path="url(#clip-_2gb)">
    <g id="g10" transform="translate(45 2417.661)">
      <g id="g12" transform="translate(0 -2402.661)">
        <path id="path14" d="M0-2371.761c-.128-6.613,4.63-10.136,9.158-13.9,3.069-2.509,4.6-4.678,4.6-8.8,0-3.317-1.493-6.506-5.2-6.506-.808,0-3.232.3-3.232,1.446a.329.329,0,0,0,.3.341,4.285,4.285,0,0,1,4.125,4.337c0,2.636-2.126,4.253-4.635,4.253A4.616,4.616,0,0,1,.443-2395.4c0-4.72,5.316-7.06,11.147-7.06,10.467,0,13.486,4.891,13.486,8.8,0,4.89-2.211,6.932-11.233,9.283a25.182,25.182,0,0,0-6.038,2c-1.191.638-3.7,2.126-3.7,3.654,0,.3.3.382.51.382a22.464,22.464,0,0,0,2.509-1.273,15.154,15.154,0,0,1,6.379-1.232,35.185,35.185,0,0,1,5.188.51c4.252.68,5.4-.043,5.826-2.083h1.251c-.125,4.036-1.506,6.583-3.249,8.237-1.956,1.867-4.423,2.419-8.037,2.419a25.663,25.663,0,0,1-6.149-1.06,18.441,18.441,0,0,0-4.253-.763,2.692,2.692,0,0,0-2.764,1.823H0" transform="translate(0 2402.465)" fill="#231f20"/>
        <path id="path16" d="M1289.388-2402.661H1291v10.291h-1.188c-1.7-3.784-5.358-8.292-9.844-8.292-5.569,0-5.483,5.35-5.483,9.468v13.758c0,1.742.128,4.417,2.422,4.417,3.018,0,2.592-3.907,2.592-5.988v-7.645h-2.465v-1.188h17.069v1.188h-2.3v11.34a13.541,13.541,0,0,0-4.9.892c-5.664,2.125-7.239,2.465-10.215,2.465-9.445,0-15.956-6.032-15.956-14.951,0-11.207,9.107-15.753,15.913-15.753a15.538,15.538,0,0,1,8.767,2.424l3.968-2.424" transform="translate(-1233.094 2402.661)" fill="#231f20"/>
        <path id="path18" d="M2816.726-2344.753c5.911,0,15.788.553,15.788-7.844,0-4.544-3.874-6.544-7.834-6.927-.9-.085-1.838-.17-2.731-.213v-.837c4.168-.085,9.821-1.444,9.821-6.625,0-5.456-6.034-7.008-10.411-7.008H2798.02v1.125h3.232v27.2h-3.232v1.125Zm-2.467-28.329h.978c2.169,0,3.275.937,3.275,3.149v5.915c0,1.914-.765,3.318-2.424,3.318h-1.829Zm0,13.571h1.02c2.124,0,3.738.64,3.738,3.92v5.581c0,1.193-.085,4.132-3.313,4.132h-1.445v-13.633" transform="translate(-2736.662 2374.832)" fill="#231f20"/>
        <path id="path20" d="M306-377.261a17.045,17.045,0,0,0-2.65-.725c-.323,0-.808.408-1,.567a2.74,2.74,0,0,0-.872,2.084c0,1.743,1.552,3.148,4.137,3.148,1.713,0,3.684-1.042,3.684-2.31,0-1.449-1.583-2.2-3.3-2.763" transform="translate(-294.864 422.384)" fill="#ed192d"/>
        <path id="path22" d="M2624.473-551.985h4.711l-2.278-4.88Z" transform="translate(-2566.922 597.341)" fill="#ed192d"/>
        <path id="path24" d="M337.23-708.884a4.135,4.135,0,0,0,.517.114c.259,0,.485-.249.646-.362a2.2,2.2,0,0,0,.84-1.609c0-1.494-1.228-2.83-3.555-2.83-1.648,0-3.264.77-3.264,2.015,0,1.563,3.135,2.2,4.815,2.672" transform="translate(-325.126 750.611)" fill="#ed192d"/>
        <path id="path26" d="M96.276-828.383c-2.511-.063-2.408.98-2.433,2.727v6.689a8.071,8.071,0,0,0,.181,2.045c.259.895,1.243.98,2.226,1.108v.759c-1.553-.021-3.078-.055-4.627-.076-1.342.021-2.711.055-4.133.076v-.759c.982-.128,1.964-.213,2.222-1.108a8.058,8.058,0,0,0,.181-2.045V-825.7h-.052L84.7-815.055H83.46l-5.4-10.793h-.052v6.54a6.074,6.074,0,0,0,.388,2.641,2.611,2.611,0,0,0,2.067.852v.759c-1.085-.021-2.145-.055-3.229-.076-.982.021-1.94.055-2.924.076v-.759c.984-.128,1.967-.213,2.226-1.108a8.071,8.071,0,0,0,.181-2.045v-8.479a2.91,2.91,0,0,0-2.407-.938v-.759c.932.021,1.89.055,2.82.076,1.085-.021,2.144-.055,3.229-.076l5.064,9.941,4.651-9.941c.981.021,1.962.055,2.943.076,1.033-.021,2.069-.055,3.26-.076ZM73.769-815.055c-1.554-.021-3.107-.055-4.661-.076-1.347.021-2.719.055-4.066.076v-.759c.777-.086,2.149-.043,2.149-.966A4.9,4.9,0,0,0,66.7-818.2l-.544-1.224H60.433l-.317.623a5.22,5.22,0,0,0-.621,1.8c0,1.052,1.191,1.116,2.148,1.181v.759c-1.087-.021-2.174-.055-3.261-.076-.984.021-1.967.055-2.95.076v-.759c2.122-.022,2.873-2.083,3.551-3.414l5.127-10.1h1.243l5.334,10.92a7.359,7.359,0,0,0,1.321,2.083,3.66,3.66,0,0,0,1.761.516Zm-22.483-1.5a20.031,20.031,0,0,1-7.844,1.785c-1.511,0-3.6-.442-3.6-1.564,0-.682.9-1.143,1.929-1.143,2.636,0,1.833,1.826,3.632,1.826a3.748,3.748,0,0,0,2.208-.843,2.914,2.914,0,0,0,1.55-2.827c0-1.846-.8-3-3.919-3a6.411,6.411,0,0,0-2.326.092,3.713,3.713,0,0,1-.656-.022c-.289,0-.309-.447-.309-.628,0-.361,1.158-.662,1.575-.782,2.218-.661,3.641-1.436,3.641-3.24,0-.983,0-1.685-1.6-1.685a5.958,5.958,0,0,0-3.5,1.2,1.375,1.375,0,0,1-.868.421c-.321,0-.514-.12-.514-.321,0-.541,1.351-1.243,2.026-1.5a13.554,13.554,0,0,1,4.918-.8,8.631,8.631,0,0,1,2.825.4c1.125.32,1.647.9,1.647,1.724,0,1.865-3.154,2.667-5.372,3.369l2.024-.06c3.311,0,5.434,1.123,5.434,3.409,0,1.765-.678,3.149-2.894,4.192ZM38.025-828.264,33-820.909l-3.242,5.431a4,4,0,0,1-.516.664c-.121.113-.424.076-.606.076H26.118c-.182,0-.388-.059-.388-.23a.814.814,0,0,1,.237-.472l7.269-9.053a6.976,6.976,0,0,0,1.091-1.876c0-.284-.516-.208-.819-.208l-7.391.054a1.1,1.1,0,0,1-.976.485c-.662,0-1.2-.563-1.2-2.07s.631-1.787,1.292-1.787a.981.981,0,0,1,.848.425l2.393.183h9.792c.212.019.3.057.3.19C38.57-828.909,38.146-828.416,38.025-828.264ZM19.349-815.871a13.631,13.631,0,0,1-5.591,1.087c-3.2,0-7.982-.906-7.982-3.692A2.5,2.5,0,0,1,7.2-820.763a8.65,8.65,0,0,1,2.521-.928c.129-.023.484-.113.484-.226,0-.09-.387-.2-.484-.249-1.939-.657-3.2-1.812-3.2-3.351,0-1.269.84-2.265,2.295-3.013a11.9,11.9,0,0,1,5.429-1.041,13.221,13.221,0,0,1,4.363.611c1.454.522,2.682,1.45,2.682,2.65,0,1.29-1.422,2.152-3.07,2.491-.1.023-.678.136-.678.249,0,.136.646.317.775.362,2.262.7,3.943,2.129,3.943,3.918,0,1.358-1.325,2.673-2.909,3.42ZM3.442-831.385v18.231H99.331v-18.231H3.442" transform="translate(-3.367 865.841)" fill="#ed192d"/>
      </g>
    </g>
  </g>
</svg>
