<?xml version="1.0" encoding="utf-8"?>
<svg xmlns="http://www.w3.org/2000/svg" xmlns:xlink="http://www.w3.org/1999/xlink" width="185" height="83" viewBox="0 0 185 83">
  <defs>
    <clipPath id="clip-path">
      <rect id="use4352" width="93.107" height="57.275"/>
    </clipPath>
    <clipPath id="clip-path-2">
      <rect id="use4362" width="109.802" height="71.954"/>
    </clipPath>
    <clipPath id="clip-_3aw">
      <rect width="185" height="83"/>
    </clipPath>
  </defs>
  <g id="_3aw" data-name="3aw" clip-path="url(#clip-_3aw)">
    <g id="layer1" transform="translate(62.526 -813.435)">
      <g id="g4398" transform="translate(-24.525 821.435)">
        <g id="g4346" transform="translate(6.981 5.702)">
          <g id="Group_74" data-name="Group 74" clip-path="url(#clip-path)">
            <path id="path4354" d="M66.739,167.69c-16.852-3.07-31.521-8.819-41.511-15.581,8.493,8.615,23.725,16.03,41.893,19.384,21.174,3.907,40.6,1.238,51.014-5.929-11.977,4.752-30.88,5.863-51.4,2.126" transform="translate(-25.228 -116.016)" fill="#00456b"/>
          </g>
        </g>
        <g id="g4356" transform="translate(0 0)">
          <g id="Group_75" data-name="Group 75" clip-path="url(#clip-path-2)">
            <path id="path4364" d="M47.808,28.218c0-1.652,0-4.226,1.8-6.121a6.906,6.906,0,0,1,5.067-1.8,7.115,7.115,0,0,1,4.9,1.6c2.074,1.893,2.074,4.371,2.074,8.064,0,3.643-.236,5.053-2.72,7.141,2.892,1.555,2.892,3.6,2.892,8.649,0,5.2,0,10.1-7.143,10.1-6.666,0-7.073-3.838-7.073-8.355v-4.13h5.271v3.594c0,1.167,0,3.256,1.836,3.256,1.905,0,1.905-2.188,1.905-4.517,0-4.472,0-5.491-2.008-5.491H52.331V34.389c3.91,0,4.319-.145,4.319-3.254,0-3.79-.1-5.2-1.939-5.2s-1.836,1.942-1.836,2.72v2.867H47.808Z" transform="translate(-34.496 -14.596)" fill="#00456b"/>
          </g>
          <g id="Group_76" data-name="Group 76" clip-path="url(#clip-path-2)">
            <path id="path4366" d="M105.6,22.6h7.753l4.864,34.3h-5.679l-.818-7.822h-4.453l-.85,7.822h-5.679Zm3.945,5.44L107.917,43.3h3.232Z" transform="translate(-73.085 -16.267)" fill="#00456b"/>
          </g>
          <g id="Group_77" data-name="Group 77" clip-path="url(#clip-path-2)">
            <path id="polygon4368" d="M158.482,22.425h5.695l1.466,24.642,2.524-24.642h7.939l2.843,24.642,1.367-24.642h5.577L183,56.772h-7.515L172.22,29.954l-3.127,26.817h-7.551Z" transform="translate(-115.016 -16.137)" fill="#00456b"/>
          </g>
          <g id="Group_78" data-name="Group 78" clip-path="url(#clip-path-2)">
            <path id="path4370" d="M267.6,78.029h-3.209c0-.319,0-1.572-.043-1.805-.176-1.048-.9-1.048-1.05-1.048-1.31,0-1.31,1.4-1.31,1.979v3.817A2.629,2.629,0,0,1,264.3,79.6a3.2,3.2,0,0,1,2.513,1.078,4.347,4.347,0,0,1,.876,3.06v3.375c0,1.719,0,3.091-1.138,4.312a4.317,4.317,0,0,1-3.407,1.339,4.239,4.239,0,0,1-3.516-1.6c-.939-1.224-.984-2.941-.984-4.574V77.243c0-1.805,0-5.737,4.412-5.737,4.544,0,4.544,3.639,4.544,5.125v1.4Zm-5.636,7.834a17.631,17.631,0,0,0,.09,2.391,1.057,1.057,0,0,0,1.134.9c1.226,0,1.226-1.134,1.226-2.767,0-2.97,0-3.96-1.226-3.96s-1.224,1.019-1.224,3.436" transform="translate(-187.756 -51.78)" fill="#fdb813"/>
          </g>
          <g id="Group_79" data-name="Group 79" clip-path="url(#clip-path-2)">
            <path id="path4372" d="M303.946,86.491c0,1.952-.133,3.408-1.005,4.486a4.9,4.9,0,0,1-7.145.057c-1-1.224-.98-2.591-.958-5.008h3.32v1.426c0,.555,0,1.717,1.2,1.717,1.072,0,1.269-.7,1.269-1.805V83.083a2.653,2.653,0,0,1-2.292,1.255,3.116,3.116,0,0,1-2.865-1.952,10.66,10.66,0,0,1-.565-4.163c0-3.088.26-4.37,1.093-5.417a4.144,4.144,0,0,1,3.491-1.517c4.458,0,4.458,4.341,4.458,5.972v9.23Zm-5.767-9.173c0,.583,0,2.679.065,3.088.176.9.72,1.164,1.158,1.164a1.125,1.125,0,0,0,.982-.583c.217-.407.284-.641.284-2.824,0-2.127,0-3.436-1.267-3.436-1.224,0-1.224,1.367-1.224,2.591" transform="translate(-214.033 -51.623)" fill="#fdb813"/>
          </g>
          <g id="Group_80" data-name="Group 80" clip-path="url(#clip-path-2)">
            <path id="path4374" d="M331.773,76.147a4.826,4.826,0,0,1,1.154-3.669,4.648,4.648,0,0,1,3.256-1.077,4.793,4.793,0,0,1,3.146.96c1.332,1.138,1.332,2.622,1.332,4.834,0,2.186-.154,3.031-1.748,4.282,1.856.933,1.856,2.155,1.856,5.184,0,3.117,0,6.058-4.586,6.058-4.282,0-4.544-2.3-4.544-5.01V85.234h3.387v2.155c0,.7,0,1.951,1.179,1.951,1.222,0,1.222-1.31,1.222-2.708,0-2.681,0-3.293-1.287-3.293h-1.466V79.845c2.513,0,2.775-.088,2.775-1.951,0-2.272-.065-3.117-1.244-3.117s-1.179,1.167-1.179,1.631v1.719h-3.254V76.147Z" transform="translate(-240.764 -51.704)" fill="#fdb813"/>
          </g>
          <g id="Group_81" data-name="Group 81" clip-path="url(#clip-path-2)">
            <path id="polygon4376" d="M198.834,160.832l1.922,3.232h.018v-3.232h1.355v5.244h-1.48l-1.924-3.268h-.017v3.268h-1.356v-5.244Z" transform="translate(-143.244 -116.649)" fill="#00456b"/>
          </g>
          <g id="Group_82" data-name="Group 82" clip-path="url(#clip-path-2)">
            <path id="polygon4378" d="M222.812,160.832v1.095h-2.97v.917h2.714V163.9h-2.714v1h3.047v1.175H218.4v-5.244Z" transform="translate(-158.529 -116.649)" fill="#00456b"/>
          </g>
          <g id="Group_83" data-name="Group 83" clip-path="url(#clip-path-2)">
            <path id="polygon4380" d="M241.232,164.673l.784-3.833h1.443l-1.529,5.243h-1.443l-.759-3.614h-.015l-.761,3.614h-1.466l-1.5-5.243h1.443l.782,3.833h.017l.812-3.833H240.4l.815,3.833Z" transform="translate(-171.303 -116.655)" fill="#00456b"/>
          </g>
          <g id="Group_84" data-name="Group 84" clip-path="url(#clip-path-2)">
            <path id="path4382" d="M265.359,164.026c.031.616.434.816,1.048.816.434,0,.88-.147.88-.538,0-.462-.79-.551-1.588-.761s-1.619-.553-1.619-1.514c0-1.146,1.218-1.592,2.257-1.592,1.1,0,2.208.506,2.217,1.687h-1.443c.023-.475-.45-.631-.892-.631-.311,0-.7.1-.7.448,0,.405.8.479,1.6.69s1.6.567,1.6,1.514c0,1.33-1.2,1.756-2.411,1.756-1.273,0-2.4-.528-2.4-1.875Z" transform="translate(-191.582 -116.361)" fill="#00456b"/>
          </g>
          <g id="Group_85" data-name="Group 85" clip-path="url(#clip-path-2)">
            <path id="polygon4384" d="M291.582,162.013V160.84h4.748v1.173h-1.652v4.071h-1.443v-4.071Z" transform="translate(-211.673 -116.655)" fill="#00456b"/>
          </g>
          <g id="Group_86" data-name="Group 86" clip-path="url(#clip-path-2)">
            <path id="path4386" d="M308.649,160.832h1.466l2.071,5.244h-1.5l-.342-.937h-1.932l-.348.937h-1.482Zm.094,3.291H310l-.612-1.836h-.017Z" transform="translate(-222.564 -116.649)" fill="#00456b"/>
          </g>
          <g id="Group_87" data-name="Group 87" clip-path="url(#clip-path-2)">
            <path id="polygon4388" d="M330.034,160.832V164.9h2.581v1.175h-4.024v-5.244Z" transform="translate(-238.549 -116.649)" fill="#00456b"/>
          </g>
          <g id="Group_88" data-name="Group 88" clip-path="url(#clip-path-2)">
            <path id="polygon4390" d="M347.337,160.832v2.012l1.822-2.012h1.793L348.9,162.9l2.3,3.178h-1.788l-1.488-2.2-.591.587v1.615H345.9v-5.244Z" transform="translate(-251.116 -116.649)" fill="#00456b"/>
          </g>
        </g>
      </g>
    </g>
  </g>
</svg>
