<?xml version="1.0" encoding="utf-8"?>
<svg xmlns="http://www.w3.org/2000/svg" xmlns:xlink="http://www.w3.org/1999/xlink" width="185" height="83" viewBox="0 0 185 83">
  <defs>
    <clipPath id="clip-daily-mail-australia">
      <rect width="185" height="83"/>
    </clipPath>
  </defs>
  <g id="daily-mail-australia" clip-path="url(#clip-daily-mail-australia)">
    <path id="daily_mail" data-name="daily mail" d="M4.074,15.284H0V1.817H3.874c3.263,0,5.536,1.864,5.536,6.47v.548c0,4.312-1.81,6.45-5.336,6.45ZM8.3,8.378c0-3.729-1.59-5.684-4.477-5.684H1.088V14.425h3.1c2.7,0,4.111-1.74,4.111-5.682Zm9.574,6.907L17.8,13.437a3.541,3.541,0,0,1-3.481,1.975c-2.01,0-3.7-1.088-3.7-3.509v-.183c0-2.03,1.462-3.526,3.874-3.526a3.541,3.541,0,0,1,3.289,1.753V7.738c0-1.059-.64-2.084-2.687-2.084a7.266,7.266,0,0,0-3.2.731V5.491a7.388,7.388,0,0,1,3.346-.677c2.593,0,3.563,1.479,3.563,2.85v7.614Zm-.091-3.7a2.871,2.871,0,0,0-3.124-2.6,2.7,2.7,0,0,0-3,2.61v.274c0,1.81,1.242,2.741,3,2.741a2.837,2.837,0,0,0,3.124-2.758Zm3.143-7.705V2.328h1.37V3.881Zm.165,11.4V5.032h1.088V15.284Zm3.507,0V1.817h1.062V15.284Zm5.993,3.052H29.528l1.39-3.143-4.331-10.1H27.7l3.82,8.919,3.855-8.919h1.059ZM101,15.284,99.691,11.43h-5.73l-1.279,3.855H91.594l4.46-13.468h1.425l4.605,13.468ZM96.756,2.748,94.18,10.579h5.245ZM109.73,15.284l-.035-1.993a4.044,4.044,0,0,1-3.7,2.175c-1.919,0-3.2-1.042-3.2-2.828V5.123h1.088v7.366c0,1.279.731,2.119,2.558,2.119a3.663,3.663,0,0,0,3.217-2.175V5.123h1.088V15.284Zm5.647.2a7.134,7.134,0,0,1-3.069-.566v-.931a5.773,5.773,0,0,0,3.032.694c1.608,0,2.61-.622,2.61-2.084,0-1.316-1.242-1.9-2.776-2.376s-2.65-1.151-2.65-2.7c0-1.662,1.26-2.687,3.178-2.687a5.549,5.549,0,0,1,2.637.548V6.33a5.419,5.419,0,0,0-2.6-.6c-1.462,0-2.23.731-2.23,1.645,0,1.151.842,1.571,2.375,2.082,1.608.531,3.035,1.116,3.035,3.046C118.923,14.682,117.37,15.484,115.377,15.484ZM122.064,6v6.633a1.771,1.771,0,0,0,1.975,1.958,5.186,5.186,0,0,0,1.553-.239v.822a6.48,6.48,0,0,1-1.756.257c-1.753,0-2.828-.822-2.828-3.106V5.982h-2.119V5.219l2.119-.035.237-2.7h.822V5.219h3.45V6Zm11.068,1.516c.017-1.225-.768-1.845-2.1-1.845a3.071,3.071,0,0,0-2.887,2.319v7.292h-1.088V5.143h1.005l.037,1.936a3.359,3.359,0,0,1,3.235-2.265,2.437,2.437,0,0,1,2.721,2.7Zm8.338,7.766-.072-1.847a3.537,3.537,0,0,1-3.481,1.975c-2.01,0-3.7-1.088-3.7-3.509v-.183c0-2.03,1.462-3.526,3.874-3.526a3.541,3.541,0,0,1,3.289,1.753V7.738c0-1.059-.64-2.084-2.687-2.084a7.266,7.266,0,0,0-3.2.731V5.491a7.385,7.385,0,0,1,3.344-.677c2.6,0,3.563,1.479,3.563,2.85v7.614Zm-.091-3.7a2.871,2.871,0,0,0-3.124-2.6,2.7,2.7,0,0,0-3,2.61v.274c0,1.81,1.242,2.741,3,2.741a2.837,2.837,0,0,0,3.124-2.758Zm3.215,3.7V1.817h1.062V15.284Zm3.346-11.4V2.328h1.37V3.881Zm.163,11.4V5.032h1.088V15.284Zm9.959,0-.072-1.847a3.541,3.541,0,0,1-3.481,1.975c-2.01,0-3.7-1.088-3.7-3.509v-.183c0-2.03,1.462-3.526,3.874-3.526a3.541,3.541,0,0,1,3.289,1.753V7.738c0-1.059-.64-2.084-2.687-2.084a7.266,7.266,0,0,0-3.2.731V5.491a7.388,7.388,0,0,1,3.346-.677c2.593,0,3.563,1.479,3.563,2.85v7.614Zm-.091-3.7a2.871,2.871,0,0,0-3.124-2.6,2.7,2.7,0,0,0-3,2.61v.274c0,1.81,1.242,2.741,3,2.741a2.837,2.837,0,0,0,3.124-2.758Zm-97.33,2.358a2.1,2.1,0,0,1-1.177-1.74V2.4a.276.276,0,0,0-.159-.257C59.17,2.067,55.759.065,55.689.031c-.117-.054-.2-.054-.448.1s-2.43,1.523-2.963,1.851a.228.228,0,0,1-.244,0L49.076.348a.357.357,0,0,0-.363,0c-.1.046-3.135,1.684-3.711,1.995a.174.174,0,0,1-.178,0L42.213.82A.355.355,0,0,0,41.85.8c-.146.085-2.7,1.721-2.787,1.786a.278.278,0,0,0-.133.265c.024.094.152.2.3.307.1.076,1.766,1.212,1.866,1.277a.422.422,0,0,1,.185.394v8.484s-1,.574-1.057.613-.337.218-.033.385c.154.087,2.713,1.416,3.513,1.834a.474.474,0,0,0,.435,0c.64-.359,2.58-1.447,2.65-1.49.124-.076.27-.218.03-.385-.063-.044-.365-.231-.668-.42V10h2.017v3.013l-.931.574c-.061.037-.231.218.1.418.115.065,3.106,1.647,4.029,2.134a.5.5,0,0,0,.5,0l2.656-1.653c.089-.059.12-.08.139-.146s-.046-.12-.131-.176l-1.288-.835V9.874l1.821-2.741c.044-.061.041-.168-.076-.168H53.24V2.809c.55.281,1.764.911,1.825.946a.535.535,0,0,1,.289.5v8.936a3.342,3.342,0,0,0,2.419,3.017.513.513,0,0,0,.376-.041c.585-.418,2.506-1.784,2.55-1.819.107-.078.194-.25-.059-.4ZM45.868,13.7l-.381-.239a.324.324,0,0,1-.161-.318V3.2a.461.461,0,0,1,.542-.379ZM48.18,6.959H48a.313.313,0,0,0-.255.133L46.164,9.485V2.922c.32.168,1.677.87,1.76.925a.409.409,0,0,1,.257.4Zm4.771,6.176-.187-.122a.472.472,0,0,1-.257-.385V10h.435Zm0-6.176h-.435v-4.1c0-.154.044-.37.435-.2Zm21.584,6.8c-.12-.089-1.336-.9-1.677-1.129a.218.218,0,0,1-.087-.178V7.736a.3.3,0,0,1,.128-.257c.1-.078.579-.463.674-.544s.17-.289-.1-.45c-.322-.194-4.085-2.175-4.268-2.258a.916.916,0,0,0-.635-.017A13.784,13.784,0,0,0,62.111,8.56a5.469,5.469,0,0,0-.983,4.409c.268,1.177.946,2.66,3.757,3.193a.607.607,0,0,0,.372-.091c.529-.435,2.21-1.773,2.312-1.86a.244.244,0,0,1,.32-.033c.094.05,3.15,1.523,3.968,1.925a.333.333,0,0,0,.355-.026c.533-.415,2.258-1.76,2.378-1.866s.141-.291-.054-.448Zm-6.413-.379a.154.154,0,0,1-.044.109.793.793,0,0,1-.951.109,5.377,5.377,0,0,1-2.473-2.28,4.169,4.169,0,0,1-.4-2.841,3.048,3.048,0,0,1,1.566-1.958.337.337,0,0,1,.3,0c.435.291,1.758,1.175,1.847,1.242a.37.37,0,0,1,.161.292Zm13.516.57c-.065-.039-1.022-.574-1.305-.737-.128-.074-.128-.218-.128-.359V7.916c0-.183.048-.244.218-.372.111-.078.435-.315.611-.45.133-.1.218-.231.033-.352-.133-.085-3.407-1.882-3.7-2.036s-.418-.137-.561-.046-2.484,1.673-2.66,1.793a.259.259,0,0,0-.033.418c.111.08,1.194.683,1.347.77s.191.161.191.257v5.221a.435.435,0,0,1-.109.339l-.468.361c-.272.218-.131.4-.063.45s2.882,1.455,3.633,1.832a.32.32,0,0,0,.335-.015c.563-.392,2.5-1.74,2.654-1.849s.122-.211,0-.281ZM78.6,3.935A4.35,4.35,0,0,0,79.679,2.9,1.941,1.941,0,0,0,80.062.973,1.436,1.436,0,0,0,78.383.244a2.138,2.138,0,0,0-1.347,1.523,3.3,3.3,0,0,0,.446,2.245C77.719,4.349,78.065,4.3,78.6,3.935ZM88.738,14.112l-1.266-.744c-.128-.076-.128-.228-.128-.359V.868c0-.174-.207-.252-.481-.172-.218.067-4.588,1.416-4.712,1.475a.154.154,0,0,0-.1.168c0,.1.126.144.3.2.272.091.64.218.64,1.2v9.445a.315.315,0,0,1-.12.255l-.457.355c-.272.218-.133.4-.065.45s2.828,1.429,3.613,1.821a.374.374,0,0,0,.389-.026c.568-.387,2.245-1.523,2.393-1.64S88.857,14.179,88.738,14.112Z" transform="translate(13 32.003)" fill="#020305"/>
  </g>
</svg>
