<?xml version="1.0" encoding="utf-8"?>
<svg xmlns="http://www.w3.org/2000/svg" xmlns:xlink="http://www.w3.org/1999/xlink" width="185" height="83" viewBox="0 0 185 83">
  <defs>
    <clipPath id="clip-Financial_times">
      <rect width="185" height="83"/>
    </clipPath>
  </defs>
  <g id="Financial_times" data-name="Financial times" clip-path="url(#clip-Financial_times)">
    <path id="time" d="M4.693,10.895c0,.891.255,1.095,1.884,1.095v.56H.9v-.56c1.12,0,1.5-.1,1.5-1.069V1.833C2.4.865,2.02.764.9.764V.2h9.52l.051,3.386h-.458C9.758,1.044,9.122.815,6.755.815H4.667v5.04h1.68c1.6,0,1.706-.255,1.833-1.527h.458V8.019H8.18c-.127-1.273-.229-1.5-1.833-1.5H4.667v4.378h.026Zm6.949,1.655v-.56c1.12,0,1.5-.1,1.5-1.069V1.833c0-.967-.382-1.069-1.5-1.069V.2h5.295v.56c-1.12,0-1.5.1-1.5,1.069V10.92c0,.967.382,1.069,1.5,1.069v.56H11.642Zm17.309.2L20.5,2.291v8.579c0,.993.687,1.145,1.858,1.145v.56h-4.48v-.56c1.171,0,1.807-.153,1.807-1.145V1.349c-.535-.56-.916-.585-1.807-.585V.2H21.85l6.466,8.324V1.884c0-.993-.687-1.145-1.858-1.145V.2h4.505v.56c-1.171,0-1.807.153-1.807,1.146V12.753h-.2Zm6.033-.2H30.53v-.56c1.171,0,1.706-.153,2.087-1.171L36.639.076h1.12l4.327,10.818c.382.967.56,1.069,1.451,1.069v.56H38.37v-.56c1.578,0,1.731-.127,1.349-1.069L38.446,7.611H34.577l-1.145,3.182c-.356.967.2,1.171,1.578,1.171v.585Zm-.178-5.575h3.36L36.41,2.546Zm20.339,5.778L46.719,2.291v8.579c0,.993.687,1.145,1.858,1.145v.56H44.2v-.56c1.069,0,1.706-.153,1.706-1.145V1.375A2.527,2.527,0,0,0,43.817.764V.2h4.225l6.466,8.324V1.884c0-.993-.687-1.145-1.858-1.145V.2h4.48v.56c-1.171,0-1.807.153-1.807,1.146V12.753h-.178ZM67.643.178h.305l.178,3.691-.458.026C67.363,1.782,66.243.662,64.181.662c-2.291,0-4.022,1.96-4.022,4.964,0,3.844,2.418,6.033,4.964,6.033a3.867,3.867,0,0,0,3.055-1.349l.357.356A5.33,5.33,0,0,1,64.1,12.728a6.185,6.185,0,0,1-6.262-6.262A6.294,6.294,0,0,1,64.207,0a10.374,10.374,0,0,1,2.978.713q.305,0,.458-.534Zm1.909,12.371v-.56c1.12,0,1.5-.1,1.5-1.069V1.833c0-.967-.382-1.069-1.5-1.069V.2h5.295v.56c-1.12,0-1.5.1-1.5,1.069V10.92c0,.967.382,1.069,1.5,1.069v.56H69.552Zm10.284,0H75.687v-.56a1.537,1.537,0,0,0,1.782-1.171L81.491.076h1.12l4.327,10.818c.382.967.56,1.069,1.451,1.069v.56H83.222v-.56c1.578,0,1.731-.127,1.349-1.069L83.3,7.611H79.429l-1.146,3.182c-.356.967.2,1.171,1.578,1.171v.585h-.026Zm-.178-5.575h3.36L81.287,2.546Zm9.6,5.575v-.56c1.12,0,1.5-.1,1.5-1.069V1.833c0-.967-.382-1.069-1.5-1.069V.2h5.269v.56c-1.12,0-1.476.1-1.476,1.069V11c0,.814.407.916,1.069.916h.636c2.393,0,3.156-.356,3.818-3.08l.458.051-.382,3.64H89.255v.026ZM114.914.2l.051,3.589h-.458c-.254-2.647-.891-2.978-3.258-2.978h-.764v10.08c0,.967.356,1.095,1.884,1.095v.56H106.31v-.56c1.527,0,1.909-.153,1.909-1.095V.815h-.764c-2.367,0-3,.331-3.258,2.978h-.458L103.79.2h11.124Zm1.2,12.346v-.56c1.12,0,1.5-.1,1.5-1.069V1.833c0-.967-.382-1.069-1.5-1.069V.2H121.4v.56c-1.12,0-1.5.1-1.5,1.069V10.92c0,.967.382,1.069,1.5,1.069v.56ZM137.34.2v.56c-1.12,0-1.6.051-1.5,1.044l.967,9.164c.1.942.458,1.044,1.578,1.044v.56h-5.269v-.56c1.095,0,1.476-.1,1.4-1.044l-.993-9.622-3.895,11.429h-.153L125.656,1.324l-.916,9.622c-.1.967.56,1.069,1.68,1.069v.56H122.3v-.56c1.12,0,1.5-.178,1.578-1.069l.967-9.164c.1-.967-.382-1.044-1.5-1.044V.2h4.327l2.6,8.426L133.063.2h4.276Zm9.851,7.815h-.458c-.127-1.273-.229-1.5-1.833-1.5h-1.884V11c0,.814.407.916,1.069.916H145.1c2.393,0,3.156-.356,3.818-3.08l.458.051-.433,3.64h-9.724v-.56c1.12,0,1.5-.1,1.5-1.069V1.833c0-.967-.382-1.069-1.5-1.069V.2h9.342l.051,3.08h-.458c-.28-2.189-.84-2.444-3.284-2.444h-1.833V5.855h1.884c1.6,0,1.705-.254,1.833-1.527h.458V8.018h-.026ZM157.016,10c0-1.12-.713-1.68-1.935-2.367l-1.96-1.018c-1.476-.789-2.342-1.655-2.342-3.207A3.565,3.565,0,0,1,154.6,0a8.834,8.834,0,0,1,2.673.713c.28,0,.407-.178.534-.534h.356l.178,3.462-.458.026A3.241,3.241,0,0,0,154.751.687a1.891,1.891,0,0,0-2.113,1.833c0,1.171.891,1.655,1.884,2.189l1.68.891c1.578.865,2.7,1.731,2.7,3.386,0,2.189-1.884,3.742-4.225,3.742-1.655,0-2.469-.789-2.9-.789-.28,0-.433.255-.56.637h-.357L150.6,8.909l.458-.051a3.471,3.471,0,0,0,3.513,3.233c1.324-.026,2.444-.611,2.444-2.087Z" transform="translate(13.1 35)" fill="#33302e" fill-rule="evenodd"/>
  </g>
</svg>
