<?xml version="1.0" encoding="utf-8"?>
<svg xmlns="http://www.w3.org/2000/svg" xmlns:xlink="http://www.w3.org/1999/xlink" width="185" height="83" viewBox="0 0 185 83">
  <defs>
    <clipPath id="clip-forbs">
      <rect width="185" height="83"/>
    </clipPath>
  </defs>
  <g id="forbs" clip-path="url(#clip-forbs)">
    <path id="Forbes_logo" d="M13.362,3.353H16.4a10.229,10.229,0,0,1,5.461.693A9.67,9.67,0,0,1,26.228,9.88c.453,1.279.453,1.279,1.545.826h.852V.583H.042V2.368H1.214A3.41,3.41,0,0,1,3.878,3.62C4.97,5.378,5.157,7.349,5.157,17.605c0,10.9-.24,13.559-1.279,14.918A2.877,2.877,0,0,1,1.667,33.7c-1.625.293-1.625.266-1.625.986a1.066,1.066,0,0,0,0,.746H18.077a1.678,1.678,0,0,0,0-1.518,9.191,9.191,0,0,0-1.332-.266,8.9,8.9,0,0,1-1.439-.293,4.8,4.8,0,0,1-1.945-4.342,61.945,61.945,0,0,1-.4-7.645v-2.1h1.066a14.385,14.385,0,0,1,3.943.426A4.928,4.928,0,0,1,20.261,23.2l.24.826h1.625v-11.8H20.634l-.24,1.145a4.742,4.742,0,0,1-2.424,3.516,4.449,4.449,0,0,1-1.945.133H12.962V14.142c0-2.984.16-9.27.266-10.256ZM138.033,24.478a9.67,9.67,0,0,0-5.514-4.182,13.319,13.319,0,0,1-4.768-2.664,2.664,2.664,0,0,1-.773-2.371,3.17,3.17,0,0,1,.932-2.238,3.223,3.223,0,0,1,3.2-.879,6.713,6.713,0,0,1,4.715,5.008c.426,1.2.48,1.2,1.252.879l.48-.186V11.212l-.346-.16a20.592,20.592,0,0,0-8.178-1.119,9.59,9.59,0,0,0-6.393,2.664,7.352,7.352,0,0,0-2.318,5.754,6.314,6.314,0,0,0,1.811,4.369,10.815,10.815,0,0,0,4.529,2.664c4.129,1.625,5.328,2.664,5.328,4.555a3.516,3.516,0,0,1-2.664,3.49,6.58,6.58,0,0,1-2.824,0,8.2,8.2,0,0,1-4.982-5.621l-.346-.852h-.479a2.131,2.131,0,0,0-.666.16h-.266v7.566h.453a27.465,27.465,0,0,0,5.541,1.225h2.664a10.443,10.443,0,0,0,3.436-.32,8.285,8.285,0,0,0,6.287-5.328,6.18,6.18,0,0,0,.48-2.4,6.633,6.633,0,0,0-.586-3.383ZM112.939,10.706a12.281,12.281,0,0,0-10.043.24,11.7,11.7,0,0,0-6.1,7.273,14.225,14.225,0,0,0-.719,5.328,14.571,14.571,0,0,0,.24,2.93,11.828,11.828,0,0,0,9.563,9.537,18.647,18.647,0,0,0,4.662,0,12.787,12.787,0,0,0,4.529-1.732,7.992,7.992,0,0,0,2.824-2.664,1.332,1.332,0,0,0-.639-.826,3.437,3.437,0,0,0-.852.453,7.619,7.619,0,0,1-4.475,1.252,7.113,7.113,0,0,1-5.674-2.238,6.367,6.367,0,0,1-1.359-1.811,12.387,12.387,0,0,1-1.305-5.328V22.081h14.758v-.533a13.081,13.081,0,0,0,0-1.6,10.656,10.656,0,0,0-5.408-9.244Zm-7.432,9.217h-1.865V18.351c.613-4.023,2.131-6.42,4-6.42s2.664,2.371,3.01,6.713V19.87h-1.6ZM67.2,9.827a5.594,5.594,0,0,0-2.664.559,8.924,8.924,0,0,0-4.129,4.129l-.346.639V9.827h-.133c-.32,0-10.176,1.971-10.5,2.1s-.213.16-.213.639,0,.559.213.586l1.039.213a1.918,1.918,0,0,1,1.492.773c.666.879.8,2.424.8,9a51.44,51.44,0,0,1-.373,8.871,2.184,2.184,0,0,1-1.838,1.732l-.906.186H49.3v.746a1.066,1.066,0,0,0,0,.773H64.189v-.773a1.945,1.945,0,0,0,0-.773,14.892,14.892,0,0,1-2.664-.346A2.664,2.664,0,0,1,60.114,30.9a92.785,92.785,0,0,1-.266-9.537c.053-3.463,0-3.676.293-3.916a4.8,4.8,0,0,1,3.117-.986,6.953,6.953,0,0,1,3.037.773,4,4,0,0,0,1.039.4S70,11.185,70,10.892a3.143,3.143,0,0,0-2.8-1.066ZM49.245,21.015a11.961,11.961,0,0,0-5.488-9.484,13.852,13.852,0,0,0-12.467-.346,12.041,12.041,0,0,0-5.834,6.926,17.8,17.8,0,0,0,0,10.229,11.162,11.162,0,0,0,2.85,4.822,10.816,10.816,0,0,0,6.154,2.984,26.852,26.852,0,0,0,4.475,0A14.091,14.091,0,0,0,40.56,35.8a11.854,11.854,0,0,0,8.5-9.457A23.282,23.282,0,0,0,49.245,21.015ZM38.163,34.335c-2.664.8-4.662-1.785-5.328-7.219a49.922,49.922,0,0,1,0-8.551c.533-4.369,1.891-6.58,4-6.58a2.664,2.664,0,0,1,2.238.986c1.785,1.785,2.664,5.328,2.664,10.656a19.74,19.74,0,0,1-1.385,8.844A4.049,4.049,0,0,1,38.163,34.2v.133ZM86.113,10.359a8.871,8.871,0,0,0-2.264,0,10.07,10.07,0,0,0-4.182.906l-.826.346V5.831a39.718,39.718,0,0,0,0-5.861c-.32,0-10.5,1.945-10.656,2.025a.826.826,0,0,0,0,.613c0,.559,0,.533,1.2.8a3.437,3.437,0,0,1,.959.373,3.277,3.277,0,0,1,.986,1.838,30.5,30.5,0,0,1,.293,6.127V35.134l.719.16c1.066.24,4.076.746,5.061.852a37.3,37.3,0,0,0,5.914,0,12.068,12.068,0,0,0,9.963-7.486,18.355,18.355,0,0,0,1.012-4.049,23.975,23.975,0,0,0-.186-5.621,10.256,10.256,0,0,0-7.992-8.631h0ZM79.134,33.882c0-.346-.266-12.014-.213-16.676v-3.65l.773-.186a5.541,5.541,0,0,1,1.572,0,2.664,2.664,0,0,1,1.652.373,7.992,7.992,0,0,1,3.436,6.074,29.3,29.3,0,0,1,0,5.834,12.813,12.813,0,0,1-3.09,7.645,3.7,3.7,0,0,1-1.891.959,4.742,4.742,0,0,1-1.625,0c-.506,0-.506-.16-.506-.373h-.107Z" transform="translate(23.354 23.069)"/>
  </g>
</svg>
