<?xml version="1.0" encoding="utf-8"?>
<svg xmlns="http://www.w3.org/2000/svg" xmlns:xlink="http://www.w3.org/1999/xlink" width="185" height="83" viewBox="0 0 185 83">
  <defs>
    <clipPath id="clip-path">
      <rect id="Rectangle_18" data-name="Rectangle 18" width="120" height="34.987"/>
    </clipPath>
    <clipPath id="clip-moz">
      <rect width="185" height="83"/>
    </clipPath>
  </defs>
  <g id="moz" clip-path="url(#clip-moz)">
    <g id="Moz_logo" transform="translate(33 24)" clip-path="url(#clip-path)">
      <path id="Path_283" data-name="Path 283" d="M0,33.331H7.333A1.38,1.38,0,0,0,8.71,31.954V19.248L22.4,34.493,36.087,19.248V31.954a1.38,1.38,0,0,0,1.377,1.377H44.8V6.1H38.57A5.222,5.222,0,0,0,34.7,7.778L22.4,21.483,10.092,7.778A5.22,5.22,0,0,0,6.227,6.1H0Z" transform="translate(0 -1.955)" fill="#24abe2" fill-rule="evenodd"/>
      <path id="Path_284" data-name="Path 284" d="M121.113,33.343h36.278a1.38,1.38,0,0,0,1.377-1.377V24.715h-17.64L158.717,6.142H122.461a1.381,1.381,0,0,0-1.377,1.377V14.77H138.7Z" transform="translate(-38.768 -1.966)" fill="#24abe2" fill-rule="evenodd"/>
      <path id="Path_285" data-name="Path 285" d="M85.623,0c11.071,0,20.046,7.738,20.046,17.494S96.694,34.987,85.623,34.987,65.577,27.249,65.577,17.494,74.551,0,85.623,0Zm0,8.742c5.4,0,10.028,3.919,10.028,8.752s-4.49,8.751-10.028,8.751-10.029-3.919-10.029-8.751S80.225,8.742,85.623,8.742Z" transform="translate(-20.996 0)" fill="#24abe2" fill-rule="evenodd"/>
    </g>
  </g>
</svg>
