<?xml version="1.0" encoding="utf-8"?>
<svg xmlns="http://www.w3.org/2000/svg" xmlns:xlink="http://www.w3.org/1999/xlink" width="185" height="83" viewBox="0 0 185 83">
  <defs>
    <clipPath id="clip-semrush">
      <rect width="185" height="83"/>
    </clipPath>
  </defs>
  <g id="semrush" clip-path="url(#clip-semrush)">
    <g id="Semrush_logo" transform="translate(2 29)">
      <path id="Path_286" data-name="Path 286" d="M133.5,9.83c0-2.985-1.865-5.13-5.316-5.13H116.8V20.183h3.731V14.866h4.384l4.29,5.316h4.2V19.81l-4.2-5.037A4.98,4.98,0,0,0,133.5,9.83ZM127.713,11.7h-7.182V7.871h7.182a1.915,1.915,0,0,1,2.145,1.959C129.951,11.042,129.112,11.7,127.713,11.7Z" transform="translate(-7.861 -0.316)"/>
      <path id="Path_287" data-name="Path 287" d="M193.9,4.6h-3.451v5.876h-9.42V4.6H177.3V20.083h3.731V14.02h9.42v6.063H193.9Z" transform="translate(-11.933 -0.31)"/>
      <path id="Path_288" data-name="Path 288" d="M105.01,4.6l-4.1,12.965h-.187L96.522,4.6H89.9V20.083h3.544V7.4h.187l4.1,12.685h5.689l4.2-12.685h.187V20.083h3.638V4.6Z" transform="translate(-6.05 -0.31)"/>
      <path id="Path_289" data-name="Path 289" d="M61.819,10.915c-1.306-.093-3.731-.373-5.13-.466-1.306-.093-2.052-.56-2.052-1.4s.839-1.492,4.011-1.492A19.186,19.186,0,0,1,66.39,9.237V5.786A17.188,17.188,0,0,0,58.462,4.2C54.078,4.2,51,6.065,51,9.143c0,2.612,1.772,4.1,5.41,4.477,1.306.187,3.544.373,5.037.466,1.679.093,2.145.653,2.145,1.4,0,1.026-1.213,1.679-4.1,1.679a17.243,17.243,0,0,1-8.3-2.332v3.544a15.12,15.12,0,0,0,8.208,2.145c4.757,0,7.835-1.865,7.835-5.13C67.229,12.874,65.643,11.289,61.819,10.915Z" transform="translate(-3.432 -0.283)"/>
      <path id="Path_290" data-name="Path 290" d="M71.1,4.6V20.083H85.464V16.912H74.644V13.74H85.277V10.569H74.644v-2.8H85.464V4.6Z" transform="translate(-4.785 -0.31)"/>
      <path id="Path_291" data-name="Path 291" d="M168.219,10.915c-1.306-.093-3.731-.373-5.13-.466-1.306-.093-2.052-.56-2.052-1.4s.839-1.492,4.011-1.492a17.754,17.754,0,0,1,7.741,1.679V5.786A17.188,17.188,0,0,0,164.862,4.2c-4.384,0-7.462,1.865-7.462,4.943,0,2.612,1.772,4.1,5.41,4.477,1.306.187,3.544.373,5.037.466,1.679.093,2.145.653,2.145,1.4,0,1.026-1.212,1.679-4.1,1.679a17.243,17.243,0,0,1-8.3-2.332v3.544a15.119,15.119,0,0,0,8.208,2.145c4.757,0,7.835-1.865,7.835-5.13C173.629,12.874,171.95,11.289,168.219,10.915Z" transform="translate(-10.593 -0.283)"/>
      <path id="Path_292" data-name="Path 292" d="M149.771,4.6v7.928a4.287,4.287,0,0,1-4.57,4.663c-2.8,0-4.57-1.586-4.57-4.663V4.6H136.9v7.555c0,5.6,3.544,8.394,8.3,8.394,4.663,0,8.208-2.7,8.208-8.208V4.6Z" transform="translate(-9.214 -0.31)"/>
      <path id="Path_293" data-name="Path 293" d="M34.883,11.939c0,.746-.373.839-1.306.839-1.026,0-1.213-.187-1.306-.933a3.868,3.868,0,0,0-3.731-3.731c-.653-.093-.839-.28-.839-1.213,0-.839.093-1.213.746-1.213A6.537,6.537,0,0,1,34.883,11.939Zm5.5,0C40.386,6.156,36.468,0,27.328,0h-18c-.373,0-.653.187-.653.56a.513.513,0,0,0,.28.466A14.439,14.439,0,0,0,11.845,2.8a27.841,27.841,0,0,0,3.171,1.4q.56.28.56.56c0,.28-.187.56-.653.56H.653C.187,5.223,0,5.5,0,5.783a.847.847,0,0,0,.28.653,28.114,28.114,0,0,0,5.689,4.384,77.611,77.611,0,0,0,7.648,4.2c.373.187.56.373.56.653s-.187.466-.653.466H6.9c-.373,0-.56.187-.56.466a.806.806,0,0,0,.28.56,26.155,26.155,0,0,0,7.089,4.2A34.349,34.349,0,0,0,27.142,24.25C36.375,24.25,40.386,17.348,40.386,11.939Zm-12.032,8.3a8.319,8.319,0,0,1-8.3-8.3,8.3,8.3,0,1,1,8.3,8.3Z" transform="translate(0)" fill="#ff642d"/>
    </g>
  </g>
</svg>
