<?xml version="1.0" encoding="utf-8"?>
<svg xmlns="http://www.w3.org/2000/svg" xmlns:xlink="http://www.w3.org/1999/xlink" width="185" height="83" viewBox="0 0 185 83">
  <defs>
    <clipPath id="clip-sen">
      <rect width="185" height="83"/>
    </clipPath>
  </defs>
  <g id="sen" clip-path="url(#clip-sen)">
    <g id="Page-1" transform="translate(36.42 14)">
      <g id="sen-logo-white" transform="translate(0.58)">
        <path id="Shape" d="M23.672,7.19H18.856a1.7,1.7,0,0,0-.889.216,2.086,2.086,0,0,0-.612,1.789,2.321,2.321,0,0,0,.262.786L21.354,18.3a6.14,6.14,0,0,1-.5,5.5,4.046,4.046,0,0,1-3.361,2.4H3.345l.6-3.819H8.592A1.546,1.546,0,0,0,9.6,22.095a2.118,2.118,0,0,0,.632-2.071,7.478,7.478,0,0,0-.3-.714L6.311,11.3a6.325,6.325,0,0,1,.617-5.36,4.8,4.8,0,0,1,3.9-2.611H24.278ZM42.246,26.2l.6-3.819H37.471c-1.054,0-1.419-.5-1.228-1.717l.684-4.394H42.77l.606-3.86H37.533l.535-3.433c.17-1.074.648-1.825,1.48-1.825h5.674s.442-2.822.6-3.824H32.558C29.9,3.325,28.452,5.5,28,8.4L26.015,21.128c-.452,2.93.288,5.073,2.976,5.073H42.246Zm29.156,0,2.616-16.76c.586-3.752-.149-6.111-3.392-6.111H50.495L46.933,26.2H56.9L59.859,7.221h3.8c.8,0,1.028.36.863,1.393L61.776,26.2ZM9.1,35.8,2.749,38.274l-.411,2.5H3.931l-1.439,8.83H1.022L.58,52.315H12.807l.442-2.709H11.722L13.974,35.8ZM28.734,52.315l.447-2.709H27.655L29.9,35.8H25.018l-6.347,2.477-.411,2.5h1.6l-1.439,8.83h-1.47L16.5,52.315Zm15.922,0,.447-2.709H43.582L45.828,35.8H40.951L34.6,38.274l-.406,2.5h1.593l-1.439,8.83H32.877l-.442,2.709Zm15.66-3.9a1.293,1.293,0,0,1-1.485,1.239h-1.47c-.92,0-1.249-.365-1.1-1.239l.678-4.184h3.022c.7,0,.966.468.853,1.167Zm3.885,3.9c2.559,0,3.834-1.444,4.25-3.973l.5-3.1c.38-2.292-.4-3.793-2.909-3.793h-8.65l.319-1.938c.113-.694.349-.982.977-.982h7.93l.447-2.739H53.65c-2.565,0-4.081,1.758-4.5,4.286L47.9,47.746c-.411,2.534.293,4.569,2.852,4.569ZM97.095,0,89.262,35.2,86.718,16.93,82.092,29.871l-79.626.01L2.112,31.8l81.476-.051,2.441-7.216,2.693,21.555,7.385-31.824L98.38,54.093l7.478-28.087,3.978,7.627,2.4-9.231-2.631,3.33-4.708-7.956L99.916,41.322Z" transform="translate(-0.58)" fill="#072132"/>
      </g>
    </g>
  </g>
</svg>
